<svg id="Layer_1" data-name="Layer 1" xmlns="http://www.w3.org/2000/svg" viewBox="0 0 1279 81"><defs><style>.cls-1,.cls-4{opacity:0.05;}.cls-2{fill:#4d4d4d;}.cls-3,.cls-4{fill:#fff;}.cls-4{stroke:#000;stroke-miterlimit:10;}</style></defs><g class="cls-1"><rect class="cls-2" x="169" y="1" width="140" height="80"/></g><g class="cls-1"><rect class="cls-2" x="329" y="1" width="140" height="80"/></g><g class="cls-1"><rect class="cls-2" x="489" y="1" width="140" height="80"/></g><g class="cls-1"><rect class="cls-2" x="649" y="1" width="140" height="80"/></g><g class="cls-1"><rect class="cls-2" x="809" y="1" width="140" height="80"/></g><g class="cls-1"><rect class="cls-2" x="969" y="1" width="140" height="80"/></g><g class="cls-1"><rect class="cls-2" x="10" width="140" height="80"/><rect class="cls-2" x="1129" y="1" width="140" height="80"/></g><g class="cls-1"><rect class="cls-3" x="148.5" y="-9.5" width="21" height="101"/><path d="M169-9V91H149V-9h20m1-1H148V92h22V-10Z"/></g><line class="cls-4" x1="159" y1="-9" x2="159" y2="91"/><g class="cls-1"><rect class="cls-3" x="-1.5" y="-9.5" width="11" height="101"/><path d="M9-9V91H-1V-9H9m1-1H-2V92H10V-10Z"/></g><g class="cls-1"><rect class="cls-3" x="308.5" y="-9.5" width="21" height="101"/><path d="M329-9V91H309V-9h20m1-1H308V92h22V-10Z"/></g><line class="cls-4" x1="319" y1="-9" x2="319" y2="91"/><g class="cls-1"><rect class="cls-3" x="468.5" y="-9.5" width="21" height="101"/><path d="M489-9V91H469V-9h20m1-1H468V92h22V-10Z"/></g><line class="cls-4" x1="479" y1="-9" x2="479" y2="91"/><g class="cls-1"><rect class="cls-3" x="628.5" y="-9.5" width="21" height="101"/><path d="M649-9V91H629V-9h20m1-1H628V92h22V-10Z"/></g><line class="cls-4" x1="639" y1="-9" x2="639" y2="91"/><g class="cls-1"><rect class="cls-3" x="788.5" y="-9.5" width="21" height="101"/><path d="M809-9V91H789V-9h20m1-1H788V92h22V-10Z"/></g><line class="cls-4" x1="799" y1="-9" x2="799" y2="91"/><g class="cls-1"><rect class="cls-3" x="948.5" y="-9.5" width="21" height="101"/><path d="M969-9V91H949V-9h20m1-1H948V92h22V-10Z"/></g><line class="cls-4" x1="959" y1="-9" x2="959" y2="91"/><g class="cls-1"><rect class="cls-3" x="1108.5" y="-9.5" width="21" height="101"/><path d="M1129-9V91h-20V-9h20m1-1h-22V92h22V-10Z"/></g><line class="cls-4" x1="1119" y1="-9" x2="1119" y2="91"/><g class="cls-1"><rect class="cls-3" x="1268.5" y="-9.5" width="11" height="101"/><path d="M1279-9V91h-10V-9h10m1-1h-12V92h12V-10Z"/></g></svg>