<svg id="Layer_1" data-name="Layer 1" xmlns="http://www.w3.org/2000/svg" viewBox="0 0 980 80"><defs><style>.cls-1,.cls-4{opacity:0.05;}.cls-2{fill:#4d4d4d;}.cls-3,.cls-4{fill:#fff;}.cls-4{stroke:#000;stroke-miterlimit:10;}</style></defs><g class="cls-1"><rect class="cls-2" x="100" width="60" height="80"/></g><g class="cls-1"><rect class="cls-2" x="180" width="60" height="80"/></g><g class="cls-1"><rect class="cls-2" x="260" width="60" height="80"/></g><g class="cls-1"><rect class="cls-2" x="340" width="60" height="80"/></g><g class="cls-1"><rect class="cls-2" x="420" width="60" height="80"/></g><g class="cls-1"><rect class="cls-2" x="500" width="60" height="80"/></g><g class="cls-1"><rect class="cls-2" x="580" width="60" height="80"/></g><g class="cls-1"><rect class="cls-2" x="660" width="60" height="80"/></g><g class="cls-1"><rect class="cls-2" x="740" width="60" height="80"/></g><g class="cls-1"><rect class="cls-2" x="820" width="60" height="80"/></g><g class="cls-1"><rect class="cls-2" x="20" width="60" height="80"/><rect class="cls-2" x="900" width="60" height="80"/></g><g class="cls-1"><rect class="cls-3" x="-0.5" y="-10.5" width="21" height="101"/><path d="M20-10V90H0V-10H20m1-1H-1V91H21V-11Z"/></g><line class="cls-4" x1="10" y1="-10" x2="10" y2="90"/><g class="cls-1"><rect class="cls-3" x="79.5" y="-10.5" width="21" height="101"/><path d="M100-10V90H80V-10h20m1-1H79V91h22V-11Z"/></g><line class="cls-4" x1="90" y1="-10" x2="90" y2="90"/><g class="cls-1"><rect class="cls-3" x="159.5" y="-10.5" width="21" height="101"/><path d="M180-10V90H160V-10h20m1-1H159V91h22V-11Z"/></g><line class="cls-4" x1="170" y1="-10" x2="170" y2="90"/><g class="cls-1"><rect class="cls-3" x="239.5" y="-10.5" width="21" height="101"/><path d="M260-10V90H240V-10h20m1-1H239V91h22V-11Z"/></g><line class="cls-4" x1="250" y1="-10" x2="250" y2="90"/><g class="cls-1"><rect class="cls-3" x="319.5" y="-10.5" width="21" height="101"/><path d="M340-10V90H320V-10h20m1-1H319V91h22V-11Z"/></g><line class="cls-4" x1="330" y1="-10" x2="330" y2="90"/><g class="cls-1"><rect class="cls-3" x="399.5" y="-10.5" width="21" height="101"/><path d="M420-10V90H400V-10h20m1-1H399V91h22V-11Z"/></g><line class="cls-4" x1="410" y1="-10" x2="410" y2="90"/><g class="cls-1"><rect class="cls-3" x="479.5" y="-10.5" width="21" height="101"/><path d="M500-10V90H480V-10h20m1-1H479V91h22V-11Z"/></g><line class="cls-4" x1="490" y1="-10" x2="490" y2="90"/><g class="cls-1"><rect class="cls-3" x="559.5" y="-10.5" width="21" height="101"/><path d="M580-10V90H560V-10h20m1-1H559V91h22V-11Z"/></g><line class="cls-4" x1="570" y1="-10" x2="570" y2="90"/><g class="cls-1"><rect class="cls-3" x="639.5" y="-10.5" width="21" height="101"/><path d="M660-10V90H640V-10h20m1-1H639V91h22V-11Z"/></g><line class="cls-4" x1="650" y1="-10" x2="650" y2="90"/><g class="cls-1"><rect class="cls-3" x="719.5" y="-10.5" width="21" height="101"/><path d="M740-10V90H720V-10h20m1-1H719V91h22V-11Z"/></g><line class="cls-4" x1="730" y1="-10" x2="730" y2="90"/><g class="cls-1"><rect class="cls-3" x="799.5" y="-10.5" width="21" height="101"/><path d="M820-10V90H800V-10h20m1-1H799V91h22V-11Z"/></g><line class="cls-4" x1="810" y1="-10" x2="810" y2="90"/><g class="cls-1"><rect class="cls-3" x="879.5" y="-10.5" width="21" height="101"/><path d="M900-10V90H880V-10h20m1-1H879V91h22V-11Z"/></g><line class="cls-4" x1="890" y1="-10" x2="890" y2="90"/><g class="cls-1"><rect class="cls-3" x="959.5" y="-10.5" width="21" height="101"/><path d="M980-10V90H960V-10h20m1-1H959V91h22V-11Z"/></g><line class="cls-4" x1="970" y1="-10" x2="970" y2="90"/></svg>