<svg id="Layer_1" data-name="Layer 1" xmlns="http://www.w3.org/2000/svg" viewBox="0 0 1920 80"><defs><style>.cls-1,.cls-4{opacity:0.05;}.cls-2{fill:#4d4d4d;}.cls-3,.cls-4{fill:#fff;}.cls-4{stroke:#000;stroke-miterlimit:10;}</style></defs><g class="cls-1"><rect class="cls-2" x="330" width="300" height="80"/></g><g class="cls-1"><rect class="cls-2" x="10" width="300" height="80"/></g><g class="cls-1"><rect class="cls-2" x="650" width="300" height="80"/></g><g class="cls-1"><rect class="cls-2" x="970" width="300" height="80"/></g><g class="cls-1"><rect class="cls-2" x="1290" width="300" height="80"/></g><g class="cls-1"><rect class="cls-2" x="1610" width="300" height="80"/></g><g class="cls-1"><rect class="cls-3" x="309.5" y="-10.5" width="21" height="101"/><path d="M330-10V90H310V-10h20m1-1H309V91h22V-11Z"/></g><line class="cls-4" x1="320" y1="-10" x2="320" y2="90"/><g class="cls-1"><rect class="cls-3" x="-0.5" y="-10.5" width="11" height="101"/><path d="M10-10V90H0V-10H10m1-1H-1V91H11V-11Z"/></g><g class="cls-1"><rect class="cls-3" x="629.5" y="-10.5" width="21" height="101"/><path d="M650-10V90H630V-10h20m1-1H629V91h22V-11Z"/></g><line class="cls-4" x1="640" y1="-10" x2="640" y2="90"/><g class="cls-1"><rect class="cls-3" x="949.5" y="-10.5" width="21" height="101"/><path d="M970-10V90H950V-10h20m1-1H949V91h22V-11Z"/></g><line class="cls-4" x1="960" y1="-10" x2="960" y2="90"/><g class="cls-1"><rect class="cls-3" x="1269.5" y="-10.5" width="21" height="101"/><path d="M1290-10V90h-20V-10h20m1-1h-22V91h22V-11Z"/></g><line class="cls-4" x1="1280" y1="-10" x2="1280" y2="90"/><g class="cls-1"><rect class="cls-3" x="1589.5" y="-10.5" width="21" height="101"/><path d="M1610-10V90h-20V-10h20m1-1h-22V91h22V-11Z"/></g><line class="cls-4" x1="1600" y1="-10" x2="1600" y2="90"/><g class="cls-1"><rect class="cls-3" x="1909.5" y="-10.5" width="11" height="101"/><path d="M1920-10V90h-10V-10h10m1-1h-12V91h12V-11Z"/></g></svg>