<svg id="Layer_1" data-name="Layer 1" xmlns="http://www.w3.org/2000/svg" viewBox="0 0 1440 80"><defs><style>.cls-1{opacity:0.05;}.cls-2{fill:#4d4d4d;}.cls-3,.cls-4{fill:#fff;}.cls-4{stroke:#000;stroke-miterlimit:10;}</style></defs><g class="cls-1"><rect class="cls-2" x="10" width="100" height="80"/></g><g class="cls-1"><rect class="cls-2" x="130" width="100" height="80"/></g><g class="cls-1"><rect class="cls-2" x="250" width="100" height="80"/></g><g class="cls-1"><rect class="cls-2" x="370" width="100" height="80"/></g><g class="cls-1"><rect class="cls-2" x="490" width="100" height="80"/></g><g class="cls-1"><rect class="cls-2" x="610" width="100" height="80"/></g><g class="cls-1"><rect class="cls-2" x="730" width="100" height="80"/></g><g class="cls-1"><rect class="cls-2" x="850" width="100" height="80"/></g><g class="cls-1"><rect class="cls-2" x="970" width="100" height="80"/></g><g class="cls-1"><rect class="cls-2" x="1090" width="100" height="80"/></g><g class="cls-1"><rect class="cls-2" x="1210" width="100" height="80"/></g><g class="cls-1"><rect class="cls-2" x="1330" width="100" height="80"/></g><g class="cls-1"><rect class="cls-3" x="229.5" y="-10.5" width="21" height="101"/><path d="M250-10V90H230V-10h20m1-1H229V91h22V-11Z"/><line class="cls-4" x1="240" y1="-10" x2="240" y2="90"/></g><g class="cls-1"><rect class="cls-3" x="109.5" y="-10.5" width="21" height="101"/><path d="M130-10V90H110V-10h20m1-1H109V91h22V-11Z"/><line class="cls-4" x1="120" y1="-10" x2="120" y2="90"/></g><g class="cls-1"><rect class="cls-3" x="-0.5" y="-10.5" width="11" height="101"/><path d="M10-10V90H0V-10H10m1-1H-1V91H11V-11Z"/></g><g class="cls-1"><rect class="cls-3" x="469.5" y="-10.5" width="21" height="101"/><path d="M490-10V90H470V-10h20m1-1H469V91h22V-11Z"/><line class="cls-4" x1="480" y1="-10" x2="480" y2="90"/></g><g class="cls-1"><rect class="cls-3" x="349.5" y="-10.5" width="21" height="101"/><path d="M370-10V90H350V-10h20m1-1H349V91h22V-11Z"/><line class="cls-4" x1="360" y1="-10" x2="360" y2="90"/></g><g class="cls-1"><rect class="cls-3" x="709.5" y="-10.5" width="21" height="101"/><path d="M730-10V90H710V-10h20m1-1H709V91h22V-11Z"/><line class="cls-4" x1="720" y1="-10" x2="720" y2="90"/></g><g class="cls-1"><rect class="cls-3" x="589.5" y="-10.5" width="21" height="101"/><path d="M610-10V90H590V-10h20m1-1H589V91h22V-11Z"/><line class="cls-4" x1="600" y1="-10" x2="600" y2="90"/></g><g class="cls-1"><rect class="cls-3" x="949.5" y="-10.5" width="21" height="101"/><path d="M970-10V90H950V-10h20m1-1H949V91h22V-11Z"/><line class="cls-4" x1="960" y1="-10" x2="960" y2="90"/></g><g class="cls-1"><rect class="cls-3" x="829.5" y="-10.5" width="21" height="101"/><path d="M850-10V90H830V-10h20m1-1H829V91h22V-11Z"/><line class="cls-4" x1="840" y1="-10" x2="840" y2="90"/></g><g class="cls-1"><rect class="cls-3" x="1189.5" y="-10.5" width="21" height="101"/><path d="M1210-10V90h-20V-10h20m1-1h-22V91h22V-11Z"/><line class="cls-4" x1="1200" y1="-10" x2="1200" y2="90"/></g><g class="cls-1"><rect class="cls-3" x="1309.5" y="-10.5" width="21" height="101"/><path d="M1330-10V90h-20V-10h20m1-1h-22V91h22V-11Z"/><line class="cls-4" x1="1320" y1="-10" x2="1320" y2="90"/></g><g class="cls-1"><rect class="cls-3" x="1069.5" y="-6.5" width="21" height="101"/><path d="M1090-6V94h-20V-6h20m1-1h-22V95h22V-7Z"/><line class="cls-4" x1="1080" y1="-6" x2="1080" y2="94"/></g><g class="cls-1"><rect class="cls-3" x="1429.5" y="-10.5" width="11" height="101"/><path d="M1440-10V90h-10V-10h10m1-1h-12V91h12V-11Z"/></g></svg>