<svg id="Layer_1" data-name="Layer 1" xmlns="http://www.w3.org/2000/svg" viewBox="0 0 1440 80"><defs><style>.cls-1{fill:#4d4d4d;}.cls-2,.cls-3{fill:#fff;}.cls-3{stroke:#000;stroke-miterlimit:10;}</style></defs><rect class="cls-1" x="250" width="220" height="80"/><rect class="cls-1" x="10" width="220" height="80"/><rect class="cls-1" x="490" width="220" height="80"/><rect class="cls-1" x="730" width="220" height="80"/><rect class="cls-1" x="970" width="220" height="80"/><rect class="cls-1" x="1210" width="220" height="80"/><rect class="cls-2" x="229.5" y="-10.5" width="21" height="101"/><path d="M250-10V90H230V-10h20m1-1H229V91h22V-11Z"/><line class="cls-3" x1="240" y1="-10" x2="240" y2="90"/><rect class="cls-2" x="-0.5" y="-10.5" width="11" height="101"/><path d="M10-10V90H0V-10H10m1-1H-1V91H11V-11Z"/><rect class="cls-2" x="469.5" y="-10.5" width="21" height="101"/><path d="M490-10V90H470V-10h20m1-1H469V91h22V-11Z"/><line class="cls-3" x1="480" y1="-10" x2="480" y2="90"/><rect class="cls-2" x="709.5" y="-10.5" width="21" height="101"/><path d="M730-10V90H710V-10h20m1-1H709V91h22V-11Z"/><line class="cls-3" x1="720" y1="-10" x2="720" y2="90"/><rect class="cls-2" x="949.5" y="-10.5" width="21" height="101"/><path d="M970-10V90H950V-10h20m1-1H949V91h22V-11Z"/><line class="cls-3" x1="960" y1="-10" x2="960" y2="90"/><rect class="cls-2" x="1189.5" y="-10.5" width="21" height="101"/><path d="M1210-10V90h-20V-10h20m1-1h-22V91h22V-11Z"/><line class="cls-3" x1="1200" y1="-10" x2="1200" y2="90"/><rect class="cls-2" x="1429.5" y="-10.5" width="11" height="101"/><path d="M1440-10V90h-10V-10h10m1-1h-12V91h12V-11Z"/></svg>