<svg id="Layer_1" data-name="Layer 1" xmlns="http://www.w3.org/2000/svg" viewBox="0 0 1920 80"><defs><style>.cls-1{fill:#4d4d4d;}.cls-2,.cls-3{fill:#fff;}.cls-3{stroke:#000;stroke-miterlimit:10;}</style></defs><rect class="cls-1" x="490" width="140" height="80"/><rect class="cls-1" x="330" width="140" height="80"/><rect class="cls-1" x="170" width="140" height="80"/><rect class="cls-1" x="10" width="140" height="80"/><rect class="cls-1" x="650" width="140" height="80"/><rect class="cls-1" x="810" width="140" height="80"/><rect class="cls-1" x="970" width="140" height="80"/><rect class="cls-1" x="1130" width="140" height="80"/><rect class="cls-1" x="1290" width="140" height="80"/><rect class="cls-1" x="1450" width="140" height="80"/><rect class="cls-1" x="1610" width="140" height="80"/><rect class="cls-1" x="1770" width="140" height="80"/><rect class="cls-2" x="469.5" y="-10.5" width="21" height="101"/><path d="M490-10V90H470V-10h20m1-1H469V91h22V-11Z"/><line class="cls-3" x1="480" y1="-10" x2="480" y2="90"/><rect class="cls-2" x="309.5" y="-10.5" width="21" height="101"/><path d="M330-10V90H310V-10h20m1-1H309V91h22V-11Z"/><line class="cls-3" x1="320" y1="-10" x2="320" y2="90"/><rect class="cls-2" x="149.5" y="-10.5" width="21" height="101"/><path d="M170-10V90H150V-10h20m1-1H149V91h22V-11Z"/><line class="cls-3" x1="160" y1="-10" x2="160" y2="90"/><rect class="cls-2" x="-0.5" y="-10.5" width="11" height="101"/><path d="M10-10V90H0V-10H10m1-1H-1V91H11V-11Z"/><rect class="cls-2" x="629.5" y="-10.5" width="21" height="101"/><path d="M650-10V90H630V-10h20m1-1H629V91h22V-11Z"/><line class="cls-3" x1="640" y1="-10" x2="640" y2="90"/><rect class="cls-2" x="789.5" y="-10.5" width="21" height="101"/><path d="M810-10V90H790V-10h20m1-1H789V91h22V-11Z"/><line class="cls-3" x1="800" y1="-10" x2="800" y2="90"/><rect class="cls-2" x="949.5" y="-10.5" width="21" height="101"/><path d="M970-10V90H950V-10h20m1-1H949V91h22V-11Z"/><line class="cls-3" x1="960" y1="-10" x2="960" y2="90"/><rect class="cls-2" x="1109.5" y="-10.5" width="21" height="101"/><path d="M1130-10V90h-20V-10h20m1-1h-22V91h22V-11Z"/><line class="cls-3" x1="1120" y1="-10" x2="1120" y2="90"/><rect class="cls-2" x="1269.5" y="-10.5" width="21" height="101"/><path d="M1290-10V90h-20V-10h20m1-1h-22V91h22V-11Z"/><line class="cls-3" x1="1280" y1="-10" x2="1280" y2="90"/><rect class="cls-2" x="1429.5" y="-10.5" width="21" height="101"/><path d="M1450-10V90h-20V-10h20m1-1h-22V91h22V-11Z"/><line class="cls-3" x1="1440" y1="-10" x2="1440" y2="90"/><rect class="cls-2" x="1589.5" y="-10.5" width="21" height="101"/><path d="M1610-10V90h-20V-10h20m1-1h-22V91h22V-11Z"/><line class="cls-3" x1="1600" y1="-10" x2="1600" y2="90"/><rect class="cls-2" x="1749.5" y="-10.5" width="21" height="101"/><path d="M1770-10V90h-20V-10h20m1-1h-22V91h22V-11Z"/><line class="cls-3" x1="1760" y1="-10" x2="1760" y2="90"/><rect class="cls-2" x="1909.5" y="-10.5" width="11" height="101"/><path d="M1920-10V90h-10V-10h10m1-1h-12V91h12V-11Z"/></svg>