<?xml version="1.0" encoding="UTF-8"?><svg version="1.1" viewBox="0 0 24 24" xmlns="http://www.w3.org/2000/svg" xmlns:xlink="http://www.w3.org/1999/xlink" class="a"><!--Generated by IJSVG (https://github.com/iconjar/IJSVG)--><style>.b{fill: #FF3C00;}.a{}</style><path d="M24,12l9.62409e-10,0.00015198c-7.10543e-15,-6.62742 -5.37258,-12 -12,-12c-6.62742,3.55271e-15 -12,5.37258 -12,12c0,0.672452 0.0565238,1.34371 0.168975,2.0067l-1.82695e-07,5.21294e-07c-0.4528,1.292 0.026514,2.72665 1.165,3.487l3.0913e-07,5.99621e-07c3.03689,5.89067 10.2741,8.20412 16.1648,5.16723c2.21772,-1.14333 4.0239,-2.94951 5.16723,-5.16723l-6.97435e-09,4.6579e-09c1.13849,-0.760351 1.6178,-2.195 1.165,-3.487l-1.35218e-07,7.99496e-07c0.112145,-0.663074 0.168684,-1.33436 0.169025,-2.00685Zm-12,8.5l2.15043e-07,-3.57723e-11c-2.81931,0.000469056 -5.25867,-1.962 -5.862,-4.716l-7.86755e-09,-3.59534e-08c-0.0590304,-0.269759 0.111799,-0.536296 0.381558,-0.595326c0.129445,-0.0283259 0.26484,-0.00411059 0.376442,0.0673263l-1.51804e-06,-8.80107e-07c1.54643,0.896563 3.31847,1.32846 5.104,1.244l4.34989e-07,2.04033e-08c1.78419,0.0836877 3.55473,-0.348187 5.1,-1.244l1.33899e-08,-8.5709e-09c0.232576,-0.148873 0.541801,-0.0810178 0.690674,0.151558c0.0714369,0.111602 0.0956522,0.246997 0.0673263,0.376442l6.58018e-08,-3.00362e-07c-0.603011,2.75253 -3.04019,4.71459 -5.858,4.716Zm7.158,-9.737l8.47941e-08,-4.71018e-08c-0.361616,0.200872 -0.817602,0.0705635 -1.01847,-0.291052c-0.000175372,-0.00031571 -0.000350516,-0.000631547 -0.000525431,-0.00094751l-1.36771e-08,-2.27914e-08c-0.28054,-0.467491 -0.794284,-0.744122 -1.339,-0.721v0l-5.37242e-08,-2.42781e-09c-0.546931,-0.024716 -1.06336,0.252506 -1.345,0.722l1.02476e-08,-1.79832e-08c-0.204204,0.358351 -0.657454,0.487661 -1.02,0.291l-4.26355e-08,-2.3641e-08c-0.362251,-0.200865 -0.49308,-0.657362 -0.292215,-1.01961c7.15544e-05,-0.000129045 0.000143147,-0.000258069 0.000214778,-0.000387072l7.15537e-08,-1.22684e-07c0.549647,-0.94241 1.56621,-1.51363 2.657,-1.493v0l1.09048e-07,-2.00331e-09c1.08905,-0.0200068 2.10339,0.551849 2.65,1.494l1.41214e-08,2.54218e-08c0.200872,0.361616 0.0705633,0.817603 -0.291053,1.01847c-0.000315679,0.000175355 -0.000631484,0.000350481 -0.000947417,0.000525379Zm-14.313,-1.02l-2.58917e-08,4.43918e-08c0.549296,-0.941777 1.56492,-1.5129 2.655,-1.493v0l-1.50931e-08,2.92211e-10c1.09012,-0.0211053 2.10586,0.550898 2.653,1.494l6.70006e-09,1.23087e-08c0.198033,0.363807 0.0636474,0.819269 -0.30016,1.0173c-0.359949,0.195933 -0.810524,0.0666598 -1.01184,-0.290305l-3.22914e-08,-5.38181e-08c-0.280888,-0.468138 -0.79558,-0.744866 -1.341,-0.720997v0l3.37306e-08,1.49728e-09c-0.54683,-0.0242735 -1.06305,0.252834 -1.345,0.722l1.02476e-08,-1.79832e-08c-0.204204,0.358351 -0.657454,0.487661 -1.02,0.291l-7.59092e-08,-4.21899e-08c-0.361568,-0.200958 -0.491769,-0.656975 -0.290812,-1.01854c0.000270024,-0.000485835 0.000540589,-0.00097137 0.000811695,-0.0014566Zm-3.071,4.394l-7.286e-07,6.40306e-07c0.653068,-0.573927 1.41146,-1.01545 2.233,-1.3l2.96921e-08,-1.24838e-08c0.254558,-0.107027 0.547681,0.012571 0.654708,0.267129c0.0294662,0.0700839 0.0425623,0.145964 0.0382924,0.221871l8.07091e-10,7.86186e-08c0.00892815,0.869687 -0.151734,1.73278 -0.473,2.541l-2.3278e-08,3.2329e-08c-0.481901,0.669277 -1.41021,0.830953 -2.09,0.364l-1.30175e-07,-9.1352e-08c-0.678112,-0.475873 -0.842059,-1.41136 -0.366186,-2.08948c0.00105993,-0.00151039 0.00212265,-0.00301882 0.00318815,-0.00452529Zm18,1.726l-8.45489e-08,-2.12703e-07c-0.321266,-0.808222 -0.481928,-1.67131 -0.473,-2.541l-7.71853e-09,-1.37214e-07c-0.015509,-0.275707 0.195423,-0.511783 0.471129,-0.527292c0.0759064,-0.00426987 0.151787,0.00882629 0.221871,0.0382925l-3.00625e-07,-1.04126e-07c0.821535,0.284552 1.57993,0.726072 2.233,1.3l3.01926e-09,4.11092e-09c0.490387,0.667692 0.346653,1.6065 -0.321039,2.09689c-0.667692,0.490387 -1.6065,0.346653 -2.09689,-0.321039c-0.0120278,-0.0163766 -0.0237217,-0.032996 -0.0350743,-0.0498477Z" class="b"></path></svg>